<svg xmlns="http://www.w3.org/2000/svg" viewBox="0 0 512 512" width="512" height="512">
  <rect width="512" height="512" rx="116" fill="#161412"/>
  <path d="M221.58999999999997 393.454Q214.15 393.454 205.036 391.966Q195.922 390.478 187.92399999999998 388.246Q179.926 386.014 175.462 383.40999999999997Q172.858 381.92199999999997 171.55599999999998 380.248Q170.254 378.574 170.254 374.48199999999997L168.394 316.078Q168.394 308.638 173.23 308.638Q177.322 308.638 178.81 315.334L182.158 329.46999999999997Q194.80599999999998 382.666 229.402 382.666Q248.002 382.666 258.976 370.204Q269.95 357.742 269.95 335.05Q269.95 313.102 258.604 294.13Q247.25799999999998 275.158 222.334 256.558Q194.80599999999998 236.84199999999998 182.158 218.428Q169.51 200.014 169.51 179.182Q169.51 151.654 188.668 135.1Q207.826 118.54599999999999 237.586 118.54599999999999Q248.74599999999998 118.54599999999999 259.162 121.15Q269.578 123.75400000000002 276.274 128.58999999999997Q278.506 130.07799999999997 279.808 131.938Q281.11 133.798 281.11 136.774L282.226 192.946Q282.226 199.26999999999998 277.39 199.26999999999998Q274.04200000000003 199.26999999999998 272.554 194.06199999999998L269.95 184.762Q261.76599999999996 156.118 253.02399999999997 142.912Q244.28199999999998 129.70600000000002 227.914 129.70600000000002Q211.918 129.70600000000002 202.43200000000002 140.122Q192.946 150.53799999999998 192.946 169.51Q192.946 185.506 203.362 200.014Q213.778 214.522 239.81799999999998 235.35399999999998Q267.71799999999996 258.046 280.55199999999996 279.06399999999996Q293.38599999999997 300.082 293.38599999999997 323.89Q293.38599999999997 344.722 284.086 360.346Q274.786 375.96999999999997 258.604 384.712Q242.422 393.454 221.58999999999997 393.454Z" fill="#EDE6DA"/>
  <path d="M324.26199999999994 393.454Q316.078 393.454 310.312 388.06Q304.546 382.666 304.546 373.738Q304.546 365.182 310.312 359.788Q316.078 354.394 324.26199999999994 354.394Q331.702 354.394 337.654 359.788Q343.606 365.182 343.606 373.738Q343.606 382.666 337.654 388.06Q331.702 393.454 324.26199999999994 393.454Z" fill="#C2703D"/>
</svg>